<?xml version="1.0" encoding="UTF-8" standalone="no"?>
<!-- Created with Inkscape (http://www.inkscape.org/) -->

<svg
   width="46.634399mm"
   height="63.398399mm"
   viewBox="0 0 46.634399 63.398399"
   version="1.1"
   id="svg126929"
   xmlns="http://www.w3.org/2000/svg"
   xmlns:svg="http://www.w3.org/2000/svg">
  <defs
     id="defs126926" />
  <g
     id="layer1"
     transform="translate(-80.5923,-124.13707)">
    <path
       style="fill:none;stroke:#840000;stroke-width:0.1524;stroke-linecap:round;stroke-linejoin:round;stroke-opacity:1"
       d="m 91.6835,167.26627 h -1.27"
       id="path53018" />
    <path
       style="fill:none;stroke:#840000;stroke-width:0.1524;stroke-linecap:round;stroke-linejoin:round;stroke-opacity:1"
       d="m 91.0485,167.90127 h -1.27"
       id="path53020" />
    <path
       style="fill:none;stroke:#840000;stroke-width:0.1524;stroke-linecap:round;stroke-linejoin:round;stroke-opacity:1"
       d="M 90.731,168.53627 H 90.096"
       id="path53022" />
    <path
       style="fill:none;stroke:#840000;stroke-width:0.1524;stroke-linecap:round;stroke-linejoin:round;stroke-opacity:1"
       d="m 90.4135,166.63127 v 0.635"
       id="path53024" />
    <path
       style="fill:none;stroke:#840000;stroke-width:0.1524;stroke-linecap:round;stroke-linejoin:round;stroke-opacity:1"
       d="m 90.4135,167.26627 h -1.27"
       id="path53026" />
    <g
       style="fill:none;stroke:#840000;stroke-width:0.1524;stroke-linecap:round;stroke-linejoin:round;stroke-opacity:1"
       id="g53032"
       transform="translate(-382.1195,106.94127)">
      <path
         d="m 472.533,59.69 v 0"
         id="path53030" />
    </g>
    <path
       style="fill:none;stroke:#840000;stroke-width:0.1524;stroke-linecap:round;stroke-linejoin:round;stroke-opacity:1"
       d="m 112.1305,149.48627 h -1.27"
       id="path54182" />
    <path
       style="fill:none;stroke:#840000;stroke-width:0.1524;stroke-linecap:round;stroke-linejoin:round;stroke-opacity:1"
       d="m 111.4955,150.12127 h -1.27"
       id="path54184" />
    <path
       style="fill:none;stroke:#840000;stroke-width:0.1524;stroke-linecap:round;stroke-linejoin:round;stroke-opacity:1"
       d="m 111.178,150.75627 h -0.635"
       id="path54186" />
    <path
       style="fill:none;stroke:#840000;stroke-width:0.1524;stroke-linecap:round;stroke-linejoin:round;stroke-opacity:1"
       d="m 110.8605,148.85127 v 0.635"
       id="path54188" />
    <path
       style="fill:none;stroke:#840000;stroke-width:0.1524;stroke-linecap:round;stroke-linejoin:round;stroke-opacity:1"
       d="m 110.8605,149.48627 h -1.27"
       id="path54190" />
    <path
       style="fill:none;stroke:#840000;stroke-width:0.254;stroke-linecap:round;stroke-linejoin:round;stroke-opacity:1"
       d="m 100.9057,151.44577 v 10.16"
       id="path56218" />
    <path
       style="fill:none;stroke:#840000;stroke-width:0.254;stroke-linecap:round;stroke-linejoin:round;stroke-opacity:1"
       d="m 100.9047,161.55717 -4.2682,-0.006"
       id="path56220" />
    <path
       style="fill:none;stroke:#840000;stroke-width:0.254;stroke-linecap:round;stroke-linejoin:round;stroke-opacity:1"
       d="m 96.6365,161.55127 v -10.16"
       id="path56222" />
    <path
       style="fill:none;stroke:#840000;stroke-width:0.254;stroke-linecap:round;stroke-linejoin:round;stroke-opacity:1"
       d="m 96.6365,151.39127 4.2456,0.002"
       id="path56224" />
    <g
       style="fill:none;stroke:#840000;stroke-width:0.1524;stroke-linecap:round;stroke-linejoin:round;stroke-opacity:1"
       id="g56234"
       transform="translate(-382.1195,106.94127)">
      <circle
         cx="481.931"
         cy="53.34"
         r="0.63499999"
         id="circle56228" />
      <path
         d="m 482.566,53.34 h 3.81"
         id="path56230" />
      <path
         d="m 481.296,53.975 -1.27,-0.635 1.27,-0.635"
         id="path56232" />
    </g>
    <g
       style="fill:none;stroke:#a90000;stroke-width:0.1524;stroke-linecap:round;stroke-linejoin:round;stroke-opacity:1"
       id="g56252"
       transform="translate(-382.1195,106.94127)">
      <text
         x="483.836"
         y="53.085999"
         textLength="1.4127001"
         font-size="1.6933px"
         lengthAdjust="spacingAndGlyphs"
         text-anchor="middle"
         opacity="0"
         stroke-opacity="0"
         id="text56236">1</text>
      <g
         class="stroked-text"
         id="g56250">
        <desc
           id="desc56238">1</desc>
        <path
           d="m 484.1989,52.9225 h -0.7257"
           id="path56240" />
        <path
           d="m 483.836,52.9225 v -1.27"
           id="path56242" />
        <path
           d="m 483.836,51.6525 -0.1209,0.1815"
           id="path56244" />
        <path
           d="m 483.7151,51.834 -0.121,0.1209"
           id="path56246" />
        <path
           d="m 483.5941,51.9549 -0.1209,0.0605"
           id="path56248" />
      </g>
    </g>
    <g
       style="fill:none;stroke:#840000;stroke-width:0.1524;stroke-linecap:round;stroke-linejoin:round;stroke-opacity:1"
       id="g56258"
       transform="translate(-382.1195,106.94127)">
      <circle
         cx="481.931"
         cy="50.799999"
         r="0.63499999"
         id="circle56254" />
      <path
         d="m 482.566,50.8 h 3.81"
         id="path56256" />
    </g>
    <text
       x="483.836"
       y="50.546001"
       textLength="1.4127001"
       font-size="1.6933px"
       lengthAdjust="spacingAndGlyphs"
       text-anchor="middle"
       opacity="0"
       stroke-opacity="0"
       id="text56260"
       style="fill:none;stroke:#a90000;stroke-width:0.1524;stroke-linecap:round;stroke-linejoin:round"
       transform="translate(-382.1195,106.94127)">2</text>
    <g
       class="stroked-text"
       id="g56284"
       style="fill:none;stroke:#a90000;stroke-width:0.1524;stroke-linecap:round;stroke-linejoin:round;stroke-opacity:1"
       transform="translate(-382.1195,106.94127)">
      <desc
         id="desc56262">2</desc>
      <path
         d="m 483.4732,49.2335 0.0604,-0.0605"
         id="path56264" />
      <path
         d="m 483.5336,49.173 0.121,-0.0605"
         id="path56266" />
      <path
         d="m 483.6546,49.1125 h 0.3024"
         id="path56268" />
      <path
         d="m 483.957,49.1125 0.1209,0.0605"
         id="path56270" />
      <path
         d="m 484.0779,49.173 0.0605,0.0605"
         id="path56272" />
      <path
         d="m 484.1384,49.2335 0.0605,0.1209"
         id="path56274" />
      <path
         d="m 484.1989,49.3544 v 0.121"
         id="path56276" />
      <path
         d="m 484.1989,49.4754 -0.0605,0.1814"
         id="path56278" />
      <path
         d="m 484.1384,49.6568 -0.7257,0.7257"
         id="path56280" />
      <path
         d="m 483.4127,50.3825 h 0.7862"
         id="path56282" />
    </g>
    <g
       style="fill:none;stroke:#840000;stroke-width:0.1524;stroke-linecap:round;stroke-linejoin:round;stroke-opacity:1"
       id="g56292"
       transform="translate(-382.1195,106.94127)">
      <circle
         cx="481.931"
         cy="48.259998"
         r="0.63499999"
         id="circle56288" />
      <path
         d="m 482.566,48.26 h 3.81"
         id="path56290" />
    </g>
    <g
       style="fill:none;stroke:#a90000;stroke-width:0.1524;stroke-linecap:round;stroke-linejoin:round;stroke-opacity:1"
       id="g56326"
       transform="translate(-382.1195,106.94127)">
      <text
         x="483.836"
         y="48.006001"
         textLength="1.4127001"
         font-size="1.6933px"
         lengthAdjust="spacingAndGlyphs"
         text-anchor="middle"
         opacity="0"
         stroke-opacity="0"
         id="text56294">3</text>
      <g
         class="stroked-text"
         id="g56324">
        <desc
           id="desc56296">3</desc>
        <path
           d="m 483.4127,46.5725 h 0.7862"
           id="path56298" />
        <path
           d="m 484.1989,46.5725 -0.4234,0.4838"
           id="path56300" />
        <path
           d="m 483.7755,47.0563 h 0.1815"
           id="path56302" />
        <path
           d="m 483.957,47.0563 0.1209,0.0605"
           id="path56304" />
        <path
           d="m 484.0779,47.1168 0.0605,0.0605"
           id="path56306" />
        <path
           d="m 484.1384,47.1773 0.0605,0.1209"
           id="path56308" />
        <path
           d="m 484.1989,47.2982 v 0.3024"
           id="path56310" />
        <path
           d="m 484.1989,47.6006 -0.0605,0.121"
           id="path56312" />
        <path
           d="m 484.1384,47.7216 -0.0605,0.0605"
           id="path56314" />
        <path
           d="m 484.0779,47.7821 -0.1209,0.0604"
           id="path56316" />
        <path
           d="m 483.957,47.8425 h -0.3629"
           id="path56318" />
        <path
           d="m 483.5941,47.8425 -0.1209,-0.0604"
           id="path56320" />
        <path
           d="m 483.4732,47.7821 -0.0605,-0.0605"
           id="path56322" />
      </g>
    </g>
    <g
       style="fill:none;stroke:#840000;stroke-width:0.1524;stroke-linecap:round;stroke-linejoin:round;stroke-opacity:1"
       id="g56332"
       transform="translate(-382.1195,106.94127)">
      <circle
         cx="481.931"
         cy="45.720001"
         r="0.63499999"
         id="circle56328" />
      <path
         d="m 482.566,45.72 h 3.81"
         id="path56330" />
    </g>
    <text
       x="483.836"
       y="45.466"
       textLength="1.4127001"
       font-size="1.6933px"
       lengthAdjust="spacingAndGlyphs"
       text-anchor="middle"
       opacity="0"
       stroke-opacity="0"
       id="text56334"
       style="fill:none;stroke:#a90000;stroke-width:0.1524;stroke-linecap:round;stroke-linejoin:round"
       transform="translate(-382.1195,106.94127)">4</text>
    <g
       class="stroked-text"
       id="g56344"
       style="fill:none;stroke:#a90000;stroke-width:0.1524;stroke-linecap:round;stroke-linejoin:round;stroke-opacity:1"
       transform="translate(-382.1195,106.94127)">
      <desc
         id="desc56336">4</desc>
      <path
         d="m 484.0779,44.4559 v 0.8466"
         id="path56338" />
      <path
         d="m 483.7755,43.9721 -0.3023,0.9071"
         id="path56340" />
      <path
         d="m 483.4732,44.8792 h 0.7861"
         id="path56342" />
    </g>
    <g
       style="fill:none;stroke:#840000;stroke-width:0.1524;stroke-linecap:round;stroke-linejoin:round;stroke-opacity:1"
       id="g56352"
       transform="translate(-382.1195,106.94127)">
      <path
         d="m 481.296,54.61 v 2.54"
         id="path56348" />
      <path
         d="M 481.296,44.45 V 41.91"
         id="path56350" />
    </g>
    <g
       style="fill:none;stroke:#006464;stroke-width:0.1524;stroke-linecap:round;stroke-linejoin:round;stroke-opacity:1"
       id="g56396"
       transform="translate(-382.1195,106.94127)">
      <text
         x="482.56219"
         y="43.748001"
         textLength="2.0919001"
         font-size="1.4393px"
         lengthAdjust="spacingAndGlyphs"
         text-anchor="middle"
         opacity="0"
         stroke-opacity="0"
         id="text56354">J3</text>
      <g
         class="stroked-text"
         id="g56394">
        <desc
           id="desc56356">J3</desc>
        <path
           d="m 482.2023,42.4225 v 0.9072"
           id="path56358" />
        <path
           d="m 482.2023,43.3297 -0.0514,0.1814"
           id="path56360" />
        <path
           d="m 482.1509,43.5111 -0.1028,0.121"
           id="path56362" />
        <path
           d="m 482.0481,43.6321 -0.1542,0.0604"
           id="path56364" />
        <path
           d="m 481.8939,43.6925 h -0.1028"
           id="path56366" />
        <path
           d="m 482.6136,42.4225 h 0.6682"
           id="path56368" />
        <path
           d="m 483.2818,42.4225 -0.3598,0.4838"
           id="path56370" />
        <path
           d="m 482.922,42.9063 h 0.1542"
           id="path56372" />
        <path
           d="m 483.0762,42.9063 0.1028,0.0605"
           id="path56374" />
        <path
           d="m 483.179,42.9668 0.0514,0.0605"
           id="path56376" />
        <path
           d="m 483.2304,43.0273 0.0514,0.1209"
           id="path56378" />
        <path
           d="m 483.2818,43.1482 v 0.3024"
           id="path56380" />
        <path
           d="m 483.2818,43.4506 -0.0514,0.121"
           id="path56382" />
        <path
           d="m 483.2304,43.5716 -0.0514,0.0605"
           id="path56384" />
        <path
           d="m 483.179,43.6321 -0.1028,0.0604"
           id="path56386" />
        <path
           d="m 483.0762,43.6925 h -0.3084"
           id="path56388" />
        <path
           d="M 482.7678,43.6925 482.665,43.6321"
           id="path56390" />
        <path
           d="m 482.665,43.6321 -0.0514,-0.0605"
           id="path56392" />
      </g>
    </g>
    <g
       style="fill:none;stroke:#0f0f0f;stroke-width:0.1524;stroke-linecap:round;stroke-linejoin:round;stroke-opacity:1"
       id="g70512"
       transform="translate(-382.1195,106.94127)">
      <text
         x="490.186"
         y="47.8409"
         textLength="8.4254999"
         font-size="2.032px"
         lengthAdjust="spacingAndGlyphs"
         text-anchor="start"
         opacity="0"
         stroke-opacity="0"
         id="text70406">VCC_5V</text>
      <g
         class="stroked-text"
         id="g70510">
        <desc
           id="desc70408">VCC_5V</desc>
        <path
           d="m 490.4313,46.1224 0.508,1.524"
           id="path70410" />
        <path
           d="m 490.9393,47.6464 0.508,-1.524"
           id="path70412" />
        <path
           d="m 492.8262,47.5013 -0.0726,0.0726"
           id="path70414" />
        <path
           d="m 492.7536,47.5739 -0.2177,0.0725"
           id="path70416" />
        <path
           d="m 492.5359,47.6464 h -0.1452"
           id="path70418" />
        <path
           d="M 492.3907,47.6464 492.173,47.5739"
           id="path70420" />
        <path
           d="m 492.173,47.5739 -0.1451,-0.1452"
           id="path70422" />
        <path
           d="m 492.0279,47.4287 -0.0726,-0.1451"
           id="path70424" />
        <path
           d="m 491.9553,47.2836 -0.0726,-0.2903"
           id="path70426" />
        <path
           d="M 491.8827,46.9933 V 46.7756"
           id="path70428" />
        <path
           d="m 491.8827,46.7756 0.0726,-0.2903"
           id="path70430" />
        <path
           d="m 491.9553,46.4853 0.0726,-0.1452"
           id="path70432" />
        <path
           d="M 492.0279,46.3401 492.173,46.195"
           id="path70434" />
        <path
           d="m 492.173,46.195 0.2177,-0.0726"
           id="path70436" />
        <path
           d="m 492.3907,46.1224 h 0.1452"
           id="path70438" />
        <path
           d="m 492.5359,46.1224 0.2177,0.0726"
           id="path70440" />
        <path
           d="m 492.7536,46.195 0.0726,0.0726"
           id="path70442" />
        <path
           d="m 494.3502,47.5013 -0.0726,0.0726"
           id="path70444" />
        <path
           d="m 494.2776,47.5739 -0.2177,0.0725"
           id="path70446" />
        <path
           d="m 494.0599,47.6464 h -0.1452"
           id="path70448" />
        <path
           d="M 493.9147,47.6464 493.697,47.5739"
           id="path70450" />
        <path
           d="m 493.697,47.5739 -0.1451,-0.1452"
           id="path70452" />
        <path
           d="m 493.5519,47.4287 -0.0726,-0.1451"
           id="path70454" />
        <path
           d="m 493.4793,47.2836 -0.0726,-0.2903"
           id="path70456" />
        <path
           d="M 493.4067,46.9933 V 46.7756"
           id="path70458" />
        <path
           d="m 493.4067,46.7756 0.0726,-0.2903"
           id="path70460" />
        <path
           d="m 493.4793,46.4853 0.0726,-0.1452"
           id="path70462" />
        <path
           d="M 493.5519,46.3401 493.697,46.195"
           id="path70464" />
        <path
           d="m 493.697,46.195 0.2177,-0.0726"
           id="path70466" />
        <path
           d="m 493.9147,46.1224 h 0.1452"
           id="path70468" />
        <path
           d="m 494.0599,46.1224 0.2177,0.0726"
           id="path70470" />
        <path
           d="m 494.2776,46.195 0.0726,0.0726"
           id="path70472" />
        <path
           d="m 494.6405,47.7916 h 1.1611"
           id="path70474" />
        <path
           d="m 496.8901,46.1224 h -0.7257"
           id="path70476" />
        <path
           d="m 496.1644,46.1224 -0.0726,0.7257"
           id="path70478" />
        <path
           d="m 496.0918,46.8481 0.0726,-0.0725"
           id="path70480" />
        <path
           d="m 496.1644,46.7756 0.1452,-0.0726"
           id="path70482" />
        <path
           d="m 496.3096,46.703 h 0.3628"
           id="path70484" />
        <path
           d="m 496.6724,46.703 0.1452,0.0726"
           id="path70486" />
        <path
           d="m 496.8176,46.7756 0.0725,0.0725"
           id="path70488" />
        <path
           d="m 496.8901,46.8481 0.0726,0.1452"
           id="path70490" />
        <path
           d="m 496.9627,46.9933 v 0.3628"
           id="path70492" />
        <path
           d="m 496.9627,47.3561 -0.0726,0.1452"
           id="path70494" />
        <path
           d="m 496.8901,47.5013 -0.0725,0.0726"
           id="path70496" />
        <path
           d="m 496.8176,47.5739 -0.1452,0.0725"
           id="path70498" />
        <path
           d="m 496.6724,47.6464 h -0.3628"
           id="path70500" />
        <path
           d="m 496.3096,47.6464 -0.1452,-0.0725"
           id="path70502" />
        <path
           d="m 496.1644,47.5739 -0.0726,-0.0726"
           id="path70504" />
        <path
           d="m 497.3981,46.1224 0.508,1.524"
           id="path70506" />
        <path
           d="m 497.9061,47.6464 0.508,-1.524"
           id="path70508" />
      </g>
    </g>
    <g
       style="fill:none;stroke:#0f0f0f;stroke-width:0.1524;stroke-linecap:round;stroke-linejoin:round;stroke-opacity:1"
       id="g70920"
       transform="translate(-382.1195,106.94127)">
      <text
         x="490.186"
         y="52.920898"
         textLength="14.5215"
         font-size="2.032px"
         lengthAdjust="spacingAndGlyphs"
         text-anchor="start"
         opacity="0"
         stroke-opacity="0"
         id="text70740">KONTROL_D9</text>
      <g
         class="stroked-text"
         id="g70918">
        <desc
           id="desc70742">KONTROL_D9</desc>
        <path
           d="m 490.649,52.7264 v -1.524"
           id="path70744" />
        <path
           d="m 491.5199,52.7264 -0.6532,-0.8708"
           id="path70746" />
        <path
           d="m 491.5199,51.2024 -0.8709,0.8709"
           id="path70748" />
        <path
           d="m 492.4633,51.2024 h 0.2903"
           id="path70750" />
        <path
           d="m 492.7536,51.2024 0.1451,0.0726"
           id="path70752" />
        <path
           d="m 492.8987,51.275 0.1452,0.1451"
           id="path70754" />
        <path
           d="m 493.0439,51.4201 0.0725,0.2903"
           id="path70756" />
        <path
           d="m 493.1164,51.7104 v 0.508"
           id="path70758" />
        <path
           d="m 493.1164,52.2184 -0.0725,0.2903"
           id="path70760" />
        <path
           d="m 493.0439,52.5087 -0.1452,0.1452"
           id="path70762" />
        <path
           d="m 492.8987,52.6539 -0.1451,0.0725"
           id="path70764" />
        <path
           d="m 492.7536,52.7264 h -0.2903"
           id="path70766" />
        <path
           d="m 492.4633,52.7264 -0.1451,-0.0725"
           id="path70768" />
        <path
           d="M 492.3182,52.6539 492.173,52.5087"
           id="path70770" />
        <path
           d="m 492.173,52.5087 -0.0726,-0.2903"
           id="path70772" />
        <path
           d="m 492.1004,52.2184 v -0.508"
           id="path70774" />
        <path
           d="m 492.1004,51.7104 0.0726,-0.2903"
           id="path70776" />
        <path
           d="m 492.173,51.4201 0.1452,-0.1451"
           id="path70778" />
        <path
           d="m 492.3182,51.275 0.1451,-0.0726"
           id="path70780" />
        <path
           d="m 493.7696,52.7264 v -1.524"
           id="path70782" />
        <path
           d="m 493.7696,51.2024 0.8709,1.524"
           id="path70784" />
        <path
           d="m 494.6405,52.7264 v -1.524"
           id="path70786" />
        <path
           d="m 495.1485,51.2024 h 0.8709"
           id="path70788" />
        <path
           d="m 495.5839,52.7264 v -1.524"
           id="path70790" />
        <path
           d="m 497.3982,52.7264 -0.508,-0.7257"
           id="path70792" />
        <path
           d="m 496.5273,52.7264 v -1.524"
           id="path70794" />
        <path
           d="m 496.5273,51.2024 h 0.5806"
           id="path70796" />
        <path
           d="m 497.1079,51.2024 0.1451,0.0726"
           id="path70798" />
        <path
           d="m 497.253,51.275 0.0726,0.0726"
           id="path70800" />
        <path
           d="m 497.3256,51.3476 0.0726,0.1451"
           id="path70802" />
        <path
           d="m 497.3982,51.4927 v 0.2177"
           id="path70804" />
        <path
           d="m 497.3982,51.7104 -0.0726,0.1452"
           id="path70806" />
        <path
           d="m 497.3256,51.8556 -0.0726,0.0725"
           id="path70808" />
        <path
           d="m 497.253,51.9281 -0.1451,0.0726"
           id="path70810" />
        <path
           d="m 497.1079,52.0007 h -0.5806"
           id="path70812" />
        <path
           d="m 498.3416,51.2024 h 0.2903"
           id="path70814" />
        <path
           d="m 498.6319,51.2024 0.1451,0.0726"
           id="path70816" />
        <path
           d="m 498.777,51.275 0.1452,0.1451"
           id="path70818" />
        <path
           d="m 498.9222,51.4201 0.0725,0.2903"
           id="path70820" />
        <path
           d="m 498.9947,51.7104 v 0.508"
           id="path70822" />
        <path
           d="m 498.9947,52.2184 -0.0725,0.2903"
           id="path70824" />
        <path
           d="m 498.9222,52.5087 -0.1452,0.1452"
           id="path70826" />
        <path
           d="m 498.777,52.6539 -0.1451,0.0725"
           id="path70828" />
        <path
           d="m 498.6319,52.7264 h -0.2903"
           id="path70830" />
        <path
           d="m 498.3416,52.7264 -0.1451,-0.0725"
           id="path70832" />
        <path
           d="m 498.1965,52.6539 -0.1452,-0.1452"
           id="path70834" />
        <path
           d="m 498.0513,52.5087 -0.0726,-0.2903"
           id="path70836" />
        <path
           d="m 497.9787,52.2184 v -0.508"
           id="path70838" />
        <path
           d="m 497.9787,51.7104 0.0726,-0.2903"
           id="path70840" />
        <path
           d="m 498.0513,51.4201 0.1452,-0.1451"
           id="path70842" />
        <path
           d="m 498.1965,51.275 0.1451,-0.0726"
           id="path70844" />
        <path
           d="m 500.3736,52.7264 h -0.7257"
           id="path70846" />
        <path
           d="m 499.6479,52.7264 v -1.524"
           id="path70848" />
        <path
           d="m 500.5188,52.8716 h 1.1611"
           id="path70850" />
        <path
           d="m 502.0427,52.7264 v -1.524"
           id="path70852" />
        <path
           d="m 502.0427,51.2024 h 0.3629"
           id="path70854" />
        <path
           d="m 502.4056,51.2024 0.2177,0.0726"
           id="path70856" />
        <path
           d="m 502.6233,51.275 0.1451,0.1451"
           id="path70858" />
        <path
           d="m 502.7684,51.4201 0.0726,0.1452"
           id="path70860" />
        <path
           d="m 502.841,51.5653 0.0726,0.2903"
           id="path70862" />
        <path
           d="m 502.9136,51.8556 v 0.2177"
           id="path70864" />
        <path
           d="m 502.9136,52.0733 -0.0726,0.2903"
           id="path70866" />
        <path
           d="m 502.841,52.3636 -0.0726,0.1451"
           id="path70868" />
        <path
           d="m 502.7684,52.5087 -0.1451,0.1452"
           id="path70870" />
        <path
           d="m 502.6233,52.6539 -0.2177,0.0725"
           id="path70872" />
        <path
           d="m 502.4056,52.7264 h -0.3629"
           id="path70874" />
        <path
           d="m 503.6393,52.7264 h 0.2903"
           id="path70876" />
        <path
           d="m 503.9296,52.7264 0.1451,-0.0725"
           id="path70878" />
        <path
           d="m 504.0747,52.6539 0.0726,-0.0726"
           id="path70880" />
        <path
           d="m 504.1473,52.5813 0.1451,-0.2177"
           id="path70882" />
        <path
           d="m 504.2924,52.3636 0.0726,-0.2903"
           id="path70884" />
        <path
           d="M 504.365,52.0733 V 51.4927"
           id="path70886" />
        <path
           d="m 504.365,51.4927 -0.0726,-0.1451"
           id="path70888" />
        <path
           d="M 504.2924,51.3476 504.2199,51.275"
           id="path70890" />
        <path
           d="m 504.2199,51.275 -0.1452,-0.0726"
           id="path70892" />
        <path
           d="m 504.0747,51.2024 h -0.2903"
           id="path70894" />
        <path
           d="m 503.7844,51.2024 -0.1451,0.0726"
           id="path70896" />
        <path
           d="m 503.6393,51.275 -0.0726,0.0726"
           id="path70898" />
        <path
           d="m 503.5667,51.3476 -0.0726,0.1451"
           id="path70900" />
        <path
           d="m 503.4941,51.4927 v 0.3629"
           id="path70902" />
        <path
           d="m 503.4941,51.8556 0.0726,0.1451"
           id="path70904" />
        <path
           d="m 503.5667,52.0007 0.0726,0.0726"
           id="path70906" />
        <path
           d="m 503.6393,52.0733 0.1451,0.0726"
           id="path70908" />
        <path
           d="m 503.7844,52.1459 h 0.2903"
           id="path70910" />
        <path
           d="m 504.0747,52.1459 0.1452,-0.0726"
           id="path70912" />
        <path
           d="m 504.2199,52.0733 0.0725,-0.0726"
           id="path70914" />
        <path
           d="m 504.2924,52.0007 0.0726,-0.1451"
           id="path70916" />
      </g>
    </g>
    <path
       d="m 80.6685,187.45927 v -63.246"
       id="path79612"
       style="fill:none;stroke:#0000c2;stroke-width:0.1524;stroke-linecap:round;stroke-linejoin:round;stroke-opacity:1" />
    <path
       d="m 127.1505,124.21327 v 63.246"
       id="path79622"
       style="fill:none;stroke:#0000c2;stroke-width:0.1524;stroke-linecap:round;stroke-linejoin:round;stroke-opacity:1" />
    <path
       d="m 80.6685,124.21327 h 46.482"
       id="path79698"
       style="fill:none;stroke:#0000c2;stroke-width:0.1524;stroke-linecap:round;stroke-linejoin:round;stroke-opacity:1" />
    <path
       d="M 127.1505,187.45927 H 80.6685"
       id="path79728"
       style="fill:none;stroke:#0000c2;stroke-width:0.1524;stroke-linecap:round;stroke-linejoin:round;stroke-opacity:1" />
    <path
       d="m 105.7805,152.66127 h -1.524"
       id="path79756"
       style="fill:none;stroke:#009600;stroke-width:0.1524;stroke-linecap:round;stroke-linejoin:round;stroke-opacity:1" />
    <path
       d="m 105.7805,148.85127 v 3.81"
       id="path79758"
       style="fill:none;stroke:#009600;stroke-width:0.1524;stroke-linecap:round;stroke-linejoin:round;stroke-opacity:1" />
    <path
       d="m 99.1765,148.85127 h -8.636"
       id="path79762"
       style="fill:none;stroke:#009600;stroke-width:0.1524;stroke-linecap:round;stroke-linejoin:round;stroke-opacity:1" />
    <path
       d="m 105.7805,148.85127 h 5.08"
       id="path79764"
       style="fill:none;stroke:#009600;stroke-width:0.1524;stroke-linecap:round;stroke-linejoin:round;stroke-opacity:1" />
    <path
       d="m 104.2565,160.28127 h 3.844"
       id="path79766"
       style="fill:none;stroke:#009600;stroke-width:0.1524;stroke-linecap:round;stroke-linejoin:round;stroke-opacity:1" />
    <path
       d="m 104.2565,155.20127 h 3.81"
       id="path79798"
       style="fill:none;stroke:#009600;stroke-width:0.1524;stroke-linecap:round;stroke-linejoin:round;stroke-opacity:1" />
    <path
       d="m 90.5405,148.85127 v 15.24"
       id="path79826"
       style="fill:none;stroke:#009600;stroke-width:0.1524;stroke-linecap:round;stroke-linejoin:round;stroke-opacity:1" />
    <path
       d="m 99.1765,164.09127 h -8.636"
       id="path79930"
       style="fill:none;stroke:#009600;stroke-width:0.1524;stroke-linecap:round;stroke-linejoin:round;stroke-opacity:1" />
    <path
       d="m 90.5405,166.63127 v -2.54"
       id="path79932"
       style="fill:none;stroke:#009600;stroke-width:0.1524;stroke-linecap:round;stroke-linejoin:round;stroke-opacity:1" />
    <path
       d="m 90.5405,166.63127 h -0.127"
       id="path79934"
       style="fill:none;stroke:#009600;stroke-width:0.1524;stroke-linecap:round;stroke-linejoin:round;stroke-opacity:1" />
    <g
       style="fill:none;stroke:#0000c2;stroke-width:0.1524;stroke-linecap:round;stroke-linejoin:round;stroke-opacity:1"
       id="g83440"
       transform="translate(-382.1195,106.94127)">
      <text
         x="464.56601"
         y="25.658001"
         textLength="17.2768"
         font-size="5.7573px"
         lengthAdjust="spacingAndGlyphs"
         text-anchor="start"
         opacity="0"
         stroke-opacity="0"
         id="text83326">Servo</text>
      <g
         class="stroked-text"
         id="g83438">
        <desc
           id="desc83328">Servo</desc>
        <path
           d="m 465.4886,24.7864 0.6169,0.2419"
           id="path83330" />
        <path
           d="m 466.1055,25.0283 h 1.0281"
           id="path83332" />
        <path
           d="m 467.1336,25.0283 0.4112,-0.2419"
           id="path83334" />
        <path
           d="m 467.5448,24.7864 0.2056,-0.242"
           id="path83336" />
        <path
           d="m 467.7504,24.5444 0.2057,-0.4838"
           id="path83338" />
        <path
           d="M 467.9561,24.0606 V 23.5768"
           id="path83340" />
        <path
           d="M 467.9561,23.5768 467.7504,23.093"
           id="path83342" />
        <path
           d="m 467.7504,23.093 -0.2056,-0.2419"
           id="path83344" />
        <path
           d="m 467.5448,22.8511 -0.4112,-0.2419"
           id="path83346" />
        <path
           d="m 467.1336,22.6092 -0.8225,-0.2419"
           id="path83348" />
        <path
           d="m 466.3111,22.3673 -0.4112,-0.2419"
           id="path83350" />
        <path
           d="m 465.8999,22.1254 -0.2057,-0.2419"
           id="path83352" />
        <path
           d="m 465.6942,21.8835 -0.2056,-0.4838"
           id="path83354" />
        <path
           d="M 465.4886,21.3997 V 20.9159"
           id="path83356" />
        <path
           d="m 465.4886,20.9159 0.2056,-0.4838"
           id="path83358" />
        <path
           d="m 465.6942,20.4321 0.2057,-0.2419"
           id="path83360" />
        <path
           d="m 465.8999,20.1902 0.4112,-0.2419"
           id="path83362" />
        <path
           d="m 466.3111,19.9483 h 1.0281"
           id="path83364" />
        <path
           d="m 467.3392,19.9483 0.6169,0.2419"
           id="path83366" />
        <path
           d="m 471.4516,24.7864 -0.4112,0.2419"
           id="path83368" />
        <path
           d="m 471.0404,25.0283 h -0.8225"
           id="path83370" />
        <path
           d="m 470.2179,25.0283 -0.4113,-0.2419"
           id="path83372" />
        <path
           d="M 469.8066,24.7864 469.601,24.3025"
           id="path83374" />
        <path
           d="M 469.601,24.3025 V 22.3673"
           id="path83376" />
        <path
           d="m 469.601,22.3673 0.2056,-0.4838"
           id="path83378" />
        <path
           d="m 469.8066,21.8835 0.4113,-0.2419"
           id="path83380" />
        <path
           d="m 470.2179,21.6416 h 0.8225"
           id="path83382" />
        <path
           d="m 471.0404,21.6416 0.4112,0.2419"
           id="path83384" />
        <path
           d="m 471.4516,21.8835 0.2056,0.4838"
           id="path83386" />
        <path
           d="m 471.6572,22.3673 v 0.4838"
           id="path83388" />
        <path
           d="m 471.6572,22.8511 -2.0562,0.4838"
           id="path83390" />
        <path
           d="M 473.5077,25.0283 V 21.6416"
           id="path83392" />
        <path
           d="m 473.5077,22.6092 0.2057,-0.4838"
           id="path83394" />
        <path
           d="m 473.7134,22.1254 0.2056,-0.2419"
           id="path83396" />
        <path
           d="m 473.919,21.8835 0.4112,-0.2419"
           id="path83398" />
        <path
           d="m 474.3302,21.6416 h 0.4113"
           id="path83400" />
        <path
           d="m 475.7695,21.6416 1.0281,3.3867"
           id="path83402" />
        <path
           d="m 476.7976,25.0283 1.0281,-3.3867"
           id="path83404" />
        <path
           d="m 480.0875,25.0283 -0.4112,-0.2419"
           id="path83406" />
        <path
           d="m 479.6763,24.7864 -0.2057,-0.242"
           id="path83408" />
        <path
           d="M 479.4706,24.5444 479.265,24.0606"
           id="path83410" />
        <path
           d="M 479.265,24.0606 V 22.6092"
           id="path83412" />
        <path
           d="m 479.265,22.6092 0.2056,-0.4838"
           id="path83414" />
        <path
           d="m 479.4706,22.1254 0.2057,-0.2419"
           id="path83416" />
        <path
           d="m 479.6763,21.8835 0.4112,-0.2419"
           id="path83418" />
        <path
           d="m 480.0875,21.6416 h 0.6169"
           id="path83420" />
        <path
           d="m 480.7044,21.6416 0.4112,0.2419"
           id="path83422" />
        <path
           d="m 481.1156,21.8835 0.2056,0.2419"
           id="path83424" />
        <path
           d="m 481.3212,22.1254 0.2056,0.4838"
           id="path83426" />
        <path
           d="m 481.5268,22.6092 v 1.4514"
           id="path83428" />
        <path
           d="m 481.5268,24.0606 -0.2056,0.4838"
           id="path83430" />
        <path
           d="m 481.3212,24.5444 -0.2056,0.242"
           id="path83432" />
        <path
           d="m 481.1156,24.7864 -0.4112,0.2419"
           id="path83434" />
        <path
           d="m 480.7044,25.0283 h -0.6169"
           id="path83436" />
      </g>
    </g>
  </g>
</svg>
